<svg width="44" height="44" viewBox="0 0 44 44" fill="none" xmlns="http://www.w3.org/2000/svg">
<path fill-rule="evenodd" clip-rule="evenodd" d="M22.6274 11.3137C25.7516 14.4379 25.7516 19.5032 22.6274 22.6274C19.5032 25.7516 14.4379 25.7516 11.3137 22.6274C8.18951 19.5032 8.18951 14.4379 11.3137 11.3137C14.4379 8.1895 19.5032 8.1895 22.6274 11.3137ZM26.7527 23.9243C30.0926 19.2379 29.6603 12.6897 25.4558 8.48527C20.7696 3.79898 13.1716 3.79898 8.48528 8.48527C3.79899 13.1716 3.79899 20.7695 8.48528 25.4558C12.6897 29.6603 19.2379 30.0926 23.9243 26.7527L31.8995 34.7279C32.6805 35.509 33.9469 35.509 34.7279 34.7279C35.509 33.9469 35.509 32.6805 34.7279 31.8995L26.7527 23.9243Z" fill="#02C39A"/>
</svg>
